<svg id="Layer_1" data-name="Layer 1" xmlns="http://www.w3.org/2000/svg" viewBox="0 0 896.55 413.9"><defs><style>.cls-1,.cls-3{fill:#f3903f;}.cls-2,.cls-3{font-size:110.63px;font-family:Poppins-Bold, Poppins;font-weight:700;}.cls-2,.cls-4{fill:#231f20;}.cls-4{font-size:44.53px;font-family:Poppins-Regular, Poppins;}</style></defs><circle class="cls-1" cx="189.1" cy="224.8" r="189.1"/><path d="M458.21,342.13l-6.74-4.6-.46.63c1.09,1.63,2.19,3.25,3.4,5.07-2.05.78-4.68-.89-5.08,2.54,2.33-1.42,3.83.1,5.58,1.18a30.42,30.42,0,0,0,6.64,3.29c1.52.48,3,0,3.51-2.3.65-3,2.33-5.76,3-8.76.37-1.76-.33-3.8-.76-5.67-.17-.72-1.6-.51-2.18.07-.82.83-2,1.38-2.67,2.3C460.84,338,459.47,340.22,458.21,342.13Z" transform="translate(-91.72 -333.05)"/><path d="M459.92,356.38c3.79.74,4.83,3.43,5.92,6.15a8.29,8.29,0,0,0,5.77,5c2.25.64,3.91-.12,4.28-2.41.53-3.29,1.9-5.5,5.17-6.82,1.66-.67,2.83-2.56,4.44-4.11-8.76-1.9-10.53-1.26-16.65,5.93C466.83,357.14,465,353.5,459.92,356.38Z" transform="translate(-91.72 -333.05)"/><path d="M460.6,383.5c-3.1-.33-4.43.26-8,3.54-1.71-1.86-2.66-4.78-5.53-4.76.91,1.85,1.78,3.85,2.87,5.73a14.32,14.32,0,0,0,2.88,3.85c1.9,1.59,3.12,1.05,4.21-1.18.55-1.13,1.56-2,2.13-3.16A36.11,36.11,0,0,0,460.6,383.5Z" transform="translate(-91.72 -333.05)"/><path d="M219.62,624.94c0,.41,2.64,1.33,7,2.12.24-1.17.47-2.31.71-3.47a24.56,24.56,0,0,0,1.77-3.72c1.33-3.52,1.45-6.22,2-6.21.28,0,.51.68,1,2.06a26.66,26.66,0,0,1,1,3.77,15.35,15.35,0,0,1,.27,2.64,20.13,20.13,0,0,1-.14,2.25c-.13,1.26-.26,2.43-.38,3.53a87,87,0,0,0,13.26.37c3.31-.16,6.05-.49,7.94-.77-.4-1.57-.8-3.14-1.21-4.72-3-6.36-2.52-9.39-1.41-11,.7-1,.8-3,5.57-5.57a3.38,3.38,0,0,0,1.38-1.47c2.21-4.54,6.35-5.28,10.78-6.06,3.57-.64,5.52.52,6.52,3.71,2,6.24,3.83,12.52,5.82,19.05h-.06l2,6.34c7.93.75,21.8,1.68,23.54-3a4.83,4.83,0,0,0-.74-3.93l-1.74-9.89,15.36,7.43c2.86-8.13,6.51-15.7,7.93-23.66.73-4.09-2.25-9-4.06-13.34A65.93,65.93,0,0,0,318,571.18c-3.59-5.64-4.24-8.41.52-13.4,6-6.32,13.13-11.58,19.84-17.22a39.24,39.24,0,0,1,4.68-2.94c0-.53,0-1.07,0-1.6-2.13,0-4.73-.88-6.32,0-11.69,6.73-22.74,14.11-26.94,28.2-2.18,7.28-5.08,14.36-7.9,21.43-4.56,11.37-3,22.94-1.23,35l-13.71.63c-.49-1.59-1.08-3.47-1.65-5.35-2.69-8.86-5.19-17.62-10.94-25.37-3.82-5.15-5.53-11.84-8.27-18-4.33,2.45-2.61,6.43-1.53,9.94s2.91,7.09,4.83,11.64l-19.17-.28c1.51-6.17,7.35-11.39,1.58-18.12a13,13,0,0,0-1.49,2.64A37.7,37.7,0,0,1,234,602.11c-5.18,3.51-7.28,7.78-8.3,13.56-.83,4.72-1.31,7.15-2.8,8.32S219.66,624.63,219.62,624.94Zm88.33-36a3.68,3.68,0,0,1-.56-3.12c1.5-4.19,3.26-8.28,5-12.64,11,12.32,12.38,27.24,3.67,37.62-2.1-1-4.22-2-6.32-3.12a13,13,0,0,1-1.48-1.18c.49-1.56.56-3.14,1.36-4.08C314.09,597.18,312,593,308,588.9Zm-69.81,16.75c5-4.11,9.18-10,17.27-5.7-.83,1-1.53,2.61-2.71,3.11-9.3,3.88-8.27,11-6.07,18.55a4.69,4.69,0,0,1-.17,1.57l-9.34.43C239.42,617.35,230.78,611.66,238.14,605.65ZM205.68,573.2c.35,6.92.66,13.84,1,20.76l1.44,31a3.86,3.86,0,0,0,.53,3.26c1.36,1.6,4,.34,10,.14,5-.17,7.6.53,8-.55s-1.57-2.65-1.74-2.79c-3.88-3.18-10.4-.91-11.85-.38,0-1.23-.11-2.51-.17-3.79-.64-11-1.45-21.91-1.87-32.88a176.37,176.37,0,0,1,.67-22.83c5.25,7.26,10.3,14.44,6.46,24,8.66-.12,11.67-6.28,7.6-14.18-.37,2.07-.71,3.88-1,5.46-2.56-6.26-5.09-12.49-7.65-18.69-2.05-4.92-1.56-9.83,2.53-13,5.82-4.5,12-8.84,18.68-11.78,9.24-4.06,19.08-6.76,28.83-10.1,1.42,4.94,2.49,10.4,4.6,15.42a42.45,42.45,0,0,0,7.58,12.41c6,6.51,17.18,6.93,24.19,1.41,1.57-1.23,2.38-3.44,3.53-5.19l-1.24-1.3c-2,1-4,2-6.1,2.87-9.74,4.25-17,2.43-20.9-7.31-3.58-9-5.38-18.77-7.06-28.36a7.74,7.74,0,0,1,8.3-9.37c9.6.78,17.25-2,25.27-7.31,8.51-5.62,18.69-5.89,28.15-.83,6.75,3.61,13.14,3.13,19-1.27,6.42-4.77,8.79-11.67,7.47-19.36-2.75-16.12-19.52-23.42-33.53-14.91a5.66,5.66,0,0,1-3.85,1A23.92,23.92,0,0,1,342.18,457c13.14.65,23.09,6.89,28.1,19.23,5.18,12.69,2.49,24.26-7.08,34.1-5.82,6-6.24,6.74-5.37,11.49,14.38-10,21.62-22.22,19.83-37.77a35.58,35.58,0,0,0-26.87-31c-10.82-2.82-20.81-.82-30,5.41-4.27,2.9-5,5.75-2.7,9.28,2.48,3.73,6.17,4.19,10.5,1.08a16.37,16.37,0,0,1,14-2.83,16.54,16.54,0,0,1,11.15,22.44c-3.15,7.32-10.33,9.89-17.56,6.44-14.76-7-28.24-3.89-41.07,5.14a13.2,13.2,0,0,1-6.19,2c-4.18.4-8.5-.2-12.58.57-6.81,1.29-10.37,5.7-9.82,12.67.37,4.7-1.52,6.92-5.4,8.27-7,2.47-14,5-21.12,7.26-8.65,2.81-16.62,6.77-23.21,13.16-5.35,5.19-8.54,11-4.73,19.48C206.54,564.77,205.44,568.6,205.68,573.2Z" transform="translate(-91.72 -333.05)"/><path d="M378.75,515.08c-4.9,8.25-12.69,10.19-20.65,11.08s-16.22.86-24.66,1.25l-.66,4.27c.56.33.86.67,1.13.65,10.77-.79,21.61-1.15,32.27-2.66,4.27-.61,8.41-3.41,12.19-5.85C381.5,521.81,381.86,518.69,378.75,515.08Z" transform="translate(-91.72 -333.05)"/><path d="M323.42,512.7a3.62,3.62,0,0,0,4.35-.53,3.32,3.32,0,0,0,.72-2.41" transform="translate(-91.72 -333.05)"/><text class="cls-2" transform="translate(407.58 159.73)">Zambezi</text><text class="cls-3" transform="translate(413.11 278.2)">Giants</text><text class="cls-4" transform="translate(413.11 354.83)">Travel and Tours</text></svg>